# xmcd
#
# Track frame offsets:
#	182
#	14460
#	28517
#	43445
#	59367
#	74810
#	93322
#	107547
#	121795
#	135977
#	152457
#	177987
#	194632
#	210167
#	244550
#
# Disc length: 3453 seconds
#
# Revision: 0
# Processed by: cddbd v1.5.2PL0 Copyright (c) Steve Scherf et al.
# Submitted via: audiograbber 1.83.01
#
DISCID=c90d7b0f
DTITLE=Lester Young - Lester Young
DYEAR=1993
DGENRE=Jazz
TTITLE0=Just You, Just Me
TTITLE1=Jeepers Creepers
TTITLE2=Three Little Words
TTITLE3=Almost like being in love
TTITLE4=On the sunny side of the street
TTITLE5=Peg O' My Heart
TTITLE6=Willow weep with me
TTITLE7=Can't we be friends
TTITLE8=Come rain or come shine
TTITLE9=I can't get started
TTITLE10=It's the talk of the town
TTITLE11=I'm confessing (that I love you)
TTITLE12=There will never be another you
TTITLE13=Prisonner of love
TTITLE14=Takes 2 to tango
EXTD=
EXTT0=
EXTT1=
EXTT2=
EXTT3=
EXTT4=
EXTT5=
EXTT6=
EXTT7=
EXTT8=
EXTT9=
EXTT10=
EXTT11=
EXTT12=
EXTT13=
EXTT14=
PLAYORDER=
